<svg width="20" height="22" viewBox="0 0 20 22" fill="none" xmlns="http://www.w3.org/2000/svg">
<path d="M7.37736 2.86857C7.43246 2.28891 7.70169 1.75062 8.13246 1.35885C8.56323 0.967088 9.12459 0.75 9.70686 0.75C10.2891 0.75 10.8505 0.967088 11.2813 1.35885C11.712 1.75062 11.9813 2.28891 12.0364 2.86857C12.0695 3.24303 12.1923 3.60399 12.3945 3.92091C12.5967 4.23783 12.8722 4.50138 13.1978 4.68925C13.5234 4.87712 13.8895 4.98378 14.2651 5.00019C14.6406 5.01661 15.0146 4.94231 15.3554 4.78357C15.8845 4.54335 16.484 4.50859 17.0374 4.68606C17.5907 4.86353 18.0582 5.24052 18.3489 5.74368C18.6396 6.24683 18.7326 6.84015 18.61 7.40814C18.4874 7.97614 18.1578 8.47819 17.6854 8.81657C17.3777 9.03242 17.1266 9.31918 16.9533 9.6526C16.7799 9.98602 16.6894 10.3563 16.6894 10.7321C16.6894 11.1079 16.7799 11.4781 16.9533 11.8115C17.1266 12.145 17.3777 12.4317 17.6854 12.6476C18.1578 12.986 18.4874 13.488 18.61 14.056C18.7326 14.624 18.6396 15.2173 18.3489 15.7205C18.0582 16.2236 17.5907 16.6006 17.0374 16.7781C16.484 16.9556 15.8845 16.9208 15.3554 16.6806C15.0146 16.5218 14.6406 16.4475 14.2651 16.464C13.8895 16.4804 13.5234 16.587 13.1978 16.7749C12.8722 16.9628 12.5967 17.2263 12.3945 17.5432C12.1923 17.8602 12.0695 18.2211 12.0364 18.5956C11.9813 19.1752 11.712 19.7135 11.2813 20.1053C10.8505 20.4971 10.2891 20.7141 9.70686 20.7141C9.12459 20.7141 8.56323 20.4971 8.13246 20.1053C7.70169 19.7135 7.43246 19.1752 7.37736 18.5956C7.3443 18.221 7.22146 17.8599 7.01922 17.5428C6.81699 17.2258 6.54133 16.9622 6.21559 16.7743C5.88985 16.5864 5.52363 16.4798 5.14794 16.4635C4.77225 16.4472 4.39816 16.5216 4.05736 16.6806C3.52825 16.9208 2.92869 16.9556 2.37536 16.7781C1.82203 16.6006 1.35453 16.2236 1.06384 15.7205C0.773153 15.2173 0.680074 14.624 0.802719 14.056C0.925365 13.488 1.25496 12.986 1.72736 12.6476C2.03498 12.4317 2.28609 12.145 2.45945 11.8115C2.63281 11.4781 2.72331 11.1079 2.72331 10.7321C2.72331 10.3563 2.63281 9.98602 2.45945 9.6526C2.28609 9.31918 2.03498 9.03242 1.72736 8.81657C1.25562 8.47802 0.926609 7.97617 0.804261 7.40856C0.681912 6.84094 0.774968 6.24811 1.06534 5.74529C1.35572 5.24246 1.82267 4.86555 2.37545 4.68781C2.92823 4.51008 3.52734 4.54421 4.05636 4.78357C4.39712 4.94231 4.7711 5.01661 5.14666 5.00019C5.52222 4.98378 5.88829 4.87712 6.2139 4.68925C6.5395 4.50138 6.81505 4.23783 7.01722 3.92091C7.2194 3.60399 7.34224 3.24303 7.37536 2.86857M12.7064 10.7326C12.7064 12.3894 11.3632 13.7326 9.70636 13.7326C8.0495 13.7326 6.70636 12.3894 6.70636 10.7326C6.70636 9.07572 8.0495 7.73257 9.70636 7.73257C11.3632 7.73257 12.7064 9.07572 12.7064 10.7326Z" stroke="white" stroke-width="1.5" stroke-linecap="round" stroke-linejoin="round"/>
</svg>
